<?xml version="1.0"?>
<svg xmlns="http://www.w3.org/2000/svg" viewBox="0 0 512 512" width="512" height="512"><g id="Outline"><circle cx="300" cy="292" r="12"/><path d="M456,16H384a39.752,39.752,0,0,0-18.929,4.772l-.009-.016a41.814,41.814,0,0,0-20.48,23.849l-64.16,189.621,15.156,5.128,4.5-13.283,48.9,18.337-9.521,28.137A44.045,44.045,0,0,0,300,248H264V232a8,8,0,0,0-8-8H224V208a8,8,0,0,0-8-8H160v-8a8,8,0,0,0-10.53-7.59l-8.821,2.941,2.941-8.821A8,8,0,0,0,136,168H88a8,8,0,0,0-7.59,10.53l2.941,8.821L74.53,184.41A8,8,0,0,0,64,192v40a8,8,0,0,0,10.53,7.59L84.7,236.2,81.754,248H72a8,8,0,0,0-8,8v24a8,8,0,0,0-7.428,10.971L68.3,320.285A24,24,0,0,0,71.846,368a160.725,160.725,0,0,1-5.665,36.176A160.651,160.651,0,0,1,51.383,440H44a28,28,0,0,0,0,56H180a28,28,0,0,0,0-56h-7.389a161.118,161.118,0,0,1-19.245-57.944l3.825,1.434A8,8,0,0,0,160,384h56a8,8,0,0,0,8-8V360h32a8,8,0,0,0,8-8V336h36a43.991,43.991,0,0,0,36.958-20.168,42,42,0,0,0,10.3-16.437L416.079,96H456a39.788,39.788,0,0,0,24-8.022V200H432V120H416V249.191c-.51.656-1.009,1.323-1.485,2.011l-54.589,78.851A44.365,44.365,0,0,0,352,355.425v50.153l-14.656,21.984A8.005,8.005,0,0,0,336,432v48H320v16H480V480H464V432a8.005,8.005,0,0,0-1.344-4.438L448,405.578V360c0-.054,0-.11,0-.164l40.077-57.889A44.365,44.365,0,0,0,496,276.575V56A40.045,40.045,0,0,0,456,16ZM80,220.9V203.1l13.47,4.49a8,8,0,0,0,10.12-10.12L99.1,184h25.8l-4.49,13.47a8,8,0,0,0,10.12,10.12L144,203.1v17.8l-13.47-4.49a8,8,0,0,0-10.291,9.53L125.754,248H98.246l5.515-22.06a8,8,0,0,0-10.291-9.53ZM80,264h64v16H80Zm68.184,32-9.6,24H85.416l-9.6-24ZM64,344a7.977,7.977,0,0,1,8-8H88v16H72A8.009,8.009,0,0,1,64,344ZM180,456a12,12,0,0,1,0,24H44a12,12,0,0,1,0-24Zm-25.492-16H69.5a176.721,176.721,0,0,0,12.1-31.558A176.731,176.731,0,0,0,87.874,368h28.01l20.718,7.769A177.164,177.164,0,0,0,154.508,440ZM208,368H161.451L104,346.456V336H208Zm0-48H155.816l11.612-29.029A8,8,0,0,0,160,280V264h48Zm0-72H142.246l-2.95-11.8,10.174,3.392A8,8,0,0,0,160,232V216h48Zm40,80v16H224V240h24Zm52-8H264V264h36a28,28,0,0,1,0,56ZM448,440v40H352V434.422l14.656-21.984A8.005,8.005,0,0,0,368,408V389.6A44.37,44.37,0,0,0,396.575,400h.262A44.58,44.58,0,0,0,432,382.809V408a8.005,8.005,0,0,0,1.344,4.438L441.052,424H376v16Zm26.92-147.16-54.589,78.85A28.582,28.582,0,0,1,396.837,384h-.262a28.576,28.576,0,0,1-23.5-44.84l54.589-78.85A28.582,28.582,0,0,1,451.163,248h.262a28.576,28.576,0,0,1,23.5,44.84ZM480,242.4A44.37,44.37,0,0,0,451.425,232h-.262A44.512,44.512,0,0,0,432,236.352V216h48ZM354.1,229.245l-48.9-18.337,45.124-133.36A39.993,39.993,0,0,0,384,96h15.187ZM456,80H384a24,24,0,0,1,0-48h72a24,24,0,0,1,0,48Z"/></g></svg>
