<?xml version="1.0" encoding="iso-8859-1"?>
<!-- Generator: Adobe Illustrator 16.0.0, SVG Export Plug-In . SVG Version: 6.00 Build 0)  -->
<!DOCTYPE svg PUBLIC "-//W3C//DTD SVG 1.1//EN" "http://www.w3.org/Graphics/SVG/1.1/DTD/svg11.dtd">
<svg version="1.1" id="Capa_1" xmlns="http://www.w3.org/2000/svg" xmlns:xlink="http://www.w3.org/1999/xlink" x="0px" y="0px"
	 width="180.952px" height="180.952px" viewBox="0 0 180.952 180.952" style="enable-background:new 0 0 180.952 180.952;"
	 xml:space="preserve">
<g>
	<path d="M22.769,49.627c-3.499,4.607-5.198,10.188-7.778,15.004c-1.936,5.139-2.977,10.4-4.413,15.235
		C9.29,84.758,9.375,89.61,8.77,93.97c-0.52,4.409-0.896,8.423-0.52,11.998c0.127,3.6,0.271,6.721,0.375,9.305
		c0.225,5.153,0.363,8.086,0.363,8.086l-0.686,0.094c0,0-0.677-2.896-1.561-8.062c-0.404-2.612-0.901-5.769-1.478-9.386
		c-0.821-3.653-0.925-7.814-0.653-12.39c0.333-4.536-0.116-9.584,0.883-14.788c1.132-5.169,1.779-10.885,3.807-16.379
		c2.61-5.272,4.33-11.283,7.959-16.379c3.511-5.181,6.954-10.598,11.786-14.842c4.412-4.667,9.883-7.941,15.028-11.408
		c5.376-2.985,10.788-5.822,16.27-7.779c5.423-2.131,10.864-3.522,16.068-4.356C81.54,6.49,86.528,6.271,91.036,5.668
		c18.217-1.102,30.021,1.924,30.021,1.913l-0.059,0.706c0-0.012-11.828-1.052-29.368,1.478c-4.327,0.884-9.114,1.439-13.938,2.929
		c-4.953,1.138-9.963,2.911-15.096,4.962c-5.122,1.986-10.131,4.788-15.084,7.696c-4.678,3.357-9.702,6.481-13.606,10.888
		C29.398,40.046,26.103,44.942,22.769,49.627z M65.826,164.852c-4.927-3.079-10.022-6.821-14.901-11.313
		c-4.483-4.445-9.83-9.776-13.775-15.51c-4.111-5.84-7.578-12.424-9.425-19.618c-1.959-7.181-2.329-14.776-1.475-22.312
		c1.912-15.008,7.92-29.947,16.346-41.388c8.881-11.233,19.145-20.735,29.412-25.88c10.385-5.252,19.905-7.947,26.622-9.437
		c6.732-1.428,10.688-1.779,10.688-1.779s-3.943-0.018-10.853,0.836c-6.824,1.017-16.811,2.45-27.831,7.503
		c-5.473,2.465-11.254,5.952-16.518,10.441c-5.201,4.315-10.816,9.292-15.392,15.38c-9.232,12.232-15.61,27.45-17.995,43.672
		c-2.338,16.42,3.153,33.384,12.342,45.507c4.666,6.354,9.454,11.225,14.93,15.93c5.346,4.415,10.852,8.003,16.101,10.923
		c10.663,5.757,20.525,8.175,27.346,9.304c6.845,1.158,10.847,1.005,10.847,1.005s-4.002-0.225-10.637-2.033
		C85.027,174.344,75.821,170.774,65.826,164.852z M175.601,90.275c-1.537-5.923-5.852-9.877-8.606-14.301
		c-2.866-8.287-4.646-17.008-7.944-25.239c-1.561-4.176-3.476-8.213-5.503-12.268c-1.85-3.656-4.066-7.205-7.146-10.544
		c-0.84-3.922-1.608-8.039-2.146-12.052c-0.462-4.286-0.769-8.683,0.094-12.499L145.083,0l-2.879,0.709
		c-5.041,1.235-9.711,3.068-13.973,5.955c-4.215,2.766-7.921,6.975-8.736,12.034l0.686,0.163c1.502-4.604,5.172-7.923,9.339-10.054
		c3.181-1.64,6.68-2.722,10.161-3.517c-1.129,3.65-1.584,7.333-1.613,10.902c-0.125,4.765,0.354,9.339,1.17,14.059l0.159,0.917
		l0.898,0.972c5.013,5.515,9.315,13.492,13.234,21.058c3.836,7.725,8.458,15.338,11.313,23.569l0.053,0.177l0.112,0.127
		c3.263,4.413,6.798,8.808,6.732,13.902c0.136,2.477-0.106,4.983-0.845,7.241c-0.414,1.111-0.739,2.198-1.289,3.139
		c-0.467,0.845-1.205,1.944-1.507,2.145c-0.769,0.698-1.638,1.059-2.885,1.715c-1.1,0.645-2.234,1.052-3.369,1.466
		c-2.223,0.887-4.492,1.324-6.549,1.028c-4.244-0.313-7.69-4.858-9.517-9.9l-0.343,0.041l-0.36,0.048
		c-0.16,2.866,0.473,5.716,1.75,8.499c1.418,2.672,4.03,5.119,7.293,6.136c3.245,1.117,6.597,0.626,9.493-0.153
		c1.448-0.438,2.926-0.904,4.214-1.584c1.183-0.568,2.896-1.183,4.162-2.389c1.726-1.602,2.405-2.896,3.126-4.492
		c0.627-1.543,1.047-3.079,1.206-4.64C176.688,96.181,176.381,93.142,175.601,90.275z M129.036,88.999
		c-4.657-4.055-8.901-8.819-12.164-13.828l-1.396-2.143l-2.14,1.289c-2.21,1.368-4.663,2.482-6.483,4.471
		c-2.087,1.714-3.624,4.031-4.989,6.333c-2.73,4.72-3.588,10.179-3.528,15.279c0.023,10.355,3.564,19.931,8.139,28.655
		c1.2,2.14,2.519,4.273,4.031,6.407c1.502,1.886,2.92,3.89,3.96,5.651c1.206,1.767,2.548,3.486,3.098,5.674
		c0.709,2.092,1.785,4.09,1.968,6.384c0.313,2.234,0.987,4.444,0.935,6.762c-0.03,2.294,0.438,4.628,0.213,6.939
		c-0.024,4.681-0.604,9.368-1.396,14.079c1.892-4.386,3.181-9.049,4.025-13.819c0.556-2.364,0.662-4.817,0.84-7.259
		c0.318-2.435-0.166-4.899-0.249-7.394c0-2.507-0.904-4.9-1.478-7.383c-0.443-2.53-1.762-4.776-2.984-7.069
		c-1.235-2.418-2.524-4.291-3.872-6.225c-1.141-1.826-2.21-3.776-3.251-5.821c-4.008-8.098-6.856-16.976-7.128-25.659
		c-0.112-2.181,0.159-4.273,0.461-6.371c0.467-2.04,0.957-4.037,1.897-5.873c0.957-1.773,1.962-3.614,3.522-4.968
		c0.898-1.084,2.14-1.889,3.322-2.725c3.807,4.309,7.943,8.133,12.565,11.39c2.956,1.578,5.758,3.34,8.949,4.262
		c2.985,1.419,6.419,1.437,9.558,1.832c-3.067-1.152-6.135-1.761-8.789-3.546C133.83,92.982,131.471,90.849,129.036,88.999z"/>
</g>
<g>
</g>
<g>
</g>
<g>
</g>
<g>
</g>
<g>
</g>
<g>
</g>
<g>
</g>
<g>
</g>
<g>
</g>
<g>
</g>
<g>
</g>
<g>
</g>
<g>
</g>
<g>
</g>
<g>
</g>
</svg>
